<svg width="551" height="442" viewBox="0 0 551 442" fill="none" xmlns="http://www.w3.org/2000/svg">
<path d="M35.3873 105.322L460.976 17.8626C465.69 16.8939 470.366 17.3709 474.542 18.9905L476.577 19.869L481.837 23.4327C485.617 26.7744 488.385 31.3249 489.479 36.6476L542.927 296.73C545.61 309.788 537.2 322.549 524.142 325.233L98.5524 412.692C92.1755 414.002 85.8694 412.667 80.7732 409.437L79.9104 408.864C75.0036 405.452 71.3477 400.223 70.0497 393.907L16.6023 133.825C13.4441 118.456 20.0188 108.48 35.3873 105.322Z" fill="url(#paint0_linear_299_26683)"/>
<path d="M26.8365 99.6865L452.426 12.2272C458.422 10.9949 464.356 12.102 469.28 14.9242L476.577 19.869L474.542 18.9905C470.366 17.3709 465.69 16.8939 460.976 17.8626L35.3873 105.322C20.0188 108.48 13.4441 118.456 16.6023 133.825L70.0497 393.907C71.3477 400.223 75.0036 405.452 79.9104 408.864L70.6238 402.696C66.0885 399.284 62.7312 394.268 61.4989 388.272L8.05152 128.189C5.36804 115.131 13.7784 102.37 26.8365 99.6865Z" fill="url(#paint1_linear_299_26683)"/>
<path d="M476.336 20.3094L481.53 23.8285C485.219 27.099 487.92 31.5465 488.989 36.7483L542.437 296.831C545.065 309.618 536.829 322.115 524.041 324.743L98.4518 412.202C92.2084 413.485 86.0355 412.179 81.045 409.017C81.0436 409.016 81.0423 409.016 81.0409 409.015L80.1958 408.453C80.1942 408.452 80.1926 408.451 80.1911 408.45C75.3878 405.108 71.8103 399.99 70.5395 393.806L17.0921 133.724C15.5304 126.125 16.3898 119.935 19.4648 115.27C22.5398 110.604 27.8884 107.374 35.488 105.812L461.077 18.3524C465.691 17.4042 470.266 17.8702 474.353 19.4534C474.356 19.4545 474.359 19.4556 474.361 19.4567L476.336 20.3094ZM69.56 394.008C70.412 398.154 72.2596 401.841 74.8018 404.871L70.913 402.288C66.4771 398.947 63.1945 394.038 61.9887 388.171L8.54128 128.089C5.9134 115.301 14.1495 102.804 26.9372 100.176L452.526 12.7169C458.392 11.5115 464.196 12.5916 469.015 15.3487L472.683 17.8342C468.963 16.7547 464.933 16.5391 460.876 17.3729L35.2867 104.832C27.5177 106.429 21.8947 109.765 18.6298 114.719C15.3649 119.673 14.516 126.156 16.1126 133.925L69.56 394.008Z" stroke="url(#paint2_linear_299_26683)"/>
<path d="M418.394 88.3244C419.896 95.5104 419.234 102.981 416.491 109.79C413.748 116.6 409.048 122.444 402.984 126.582C396.92 130.72 389.765 132.967 382.424 133.039C375.083 133.111 367.885 131.004 361.741 126.985C355.598 122.966 350.783 117.216 347.908 110.461C345.032 103.706 344.224 96.2503 345.586 89.0363C346.948 81.8223 350.418 75.1741 355.558 69.9324C360.698 64.6907 367.278 61.091 374.464 59.5884C384.1 57.5735 394.142 59.4691 402.38 64.8581C410.619 70.2472 416.379 78.6882 418.394 88.3244Z" fill="#ED1C2E"/>
<path d="M423.25 49.3873C414.232 51.2662 406.237 56.437 400.825 63.8911C399.763 65.3593 398.805 66.9008 397.961 68.5041L405.29 66.9716C406.552 67.985 407.748 69.0786 408.87 70.2457L395.975 72.9421C395.461 74.343 395.031 75.7732 394.687 77.2253L411.758 73.656C412.604 74.7853 413.385 75.9622 414.097 77.1809L393.973 81.3886C393.814 82.739 393.728 84.097 393.715 85.4567L415.972 80.8028C417.052 83.2144 417.874 85.7336 418.424 88.3181C419.249 92.2418 419.432 96.2734 418.966 100.256L398.8 104.472C399.512 105.691 400.293 106.868 401.139 107.997L418.209 104.428C417.867 105.882 417.434 107.313 416.914 108.713L404.018 111.409C405.14 112.573 406.335 113.664 407.597 114.675L414.943 113.139C414.101 114.746 413.145 116.291 412.08 117.76C417.28 120.808 423.144 122.544 429.166 122.818C435.187 123.092 441.185 121.895 446.64 119.331C452.095 116.767 456.844 112.913 460.475 108.103C464.107 103.292 466.513 97.6694 467.485 91.7207C468.456 85.7719 467.965 79.676 466.052 73.9599C464.14 68.2437 460.864 63.0793 456.508 58.913C452.152 54.7466 446.847 51.7038 441.052 50.0473C435.256 48.3909 429.144 48.1708 423.245 49.406L423.25 49.3873Z" fill="#FCB131"/>
<path d="M374.415 101.676C374.127 101.695 373.841 101.734 373.559 101.793C371.316 102.262 370.346 103.266 370.662 104.775C370.681 104.977 370.743 105.171 370.844 105.346C370.945 105.521 371.083 105.672 371.248 105.788C371.413 105.905 371.601 105.985 371.799 106.023C371.998 106.06 372.202 106.054 372.398 106.006C373.975 105.676 374.811 103.908 374.415 101.676ZM378.679 107.756L375.415 108.438L375.158 106.872C374.789 107.584 374.257 108.198 373.604 108.663C372.952 109.129 372.198 109.433 371.405 109.55C369.271 109.996 367.451 108.616 366.946 106.204C366.183 102.552 368.268 99.8975 372.663 98.9787C373.203 98.8727 373.749 98.7996 374.298 98.7599C374.324 98.4224 374.306 98.0829 374.245 97.7499C374.039 96.7631 373.278 96.5348 371.431 96.9211C370.011 97.211 368.648 97.7339 367.398 98.4687L367.24 94.9805C368.66 94.1593 370.197 93.559 371.798 93.2002C375.171 92.4948 377.293 93.6355 377.895 96.5114C378.068 97.5148 378.168 98.5293 378.195 99.5472C378.308 101.812 378.544 106.604 378.679 107.756Z" fill="#003473"/>
<path d="M366.092 110.387L362.153 111.211L361.451 96.5692L359.362 111.795L356.68 112.355L353.396 98.3328L353.972 112.921L350.278 113.694L349.51 94.6119L355.178 93.4268L357.68 103.669L358.981 92.6315L365.29 91.3124L366.092 110.387Z" fill="#003473"/>
<path d="M436.55 88.6834C436.262 88.7027 435.976 88.7419 435.694 88.8007C433.451 89.2697 432.481 90.2735 432.797 91.7832C432.816 91.9843 432.878 92.1788 432.979 92.3536C433.08 92.5285 433.218 92.6794 433.383 92.7962C433.547 92.913 433.735 92.9928 433.934 93.0303C434.132 93.0678 434.337 93.062 434.533 93.0134C436.101 92.6854 436.946 90.9156 436.55 88.6834ZM440.814 94.7634L437.55 95.4459L437.318 93.8746C436.949 94.586 436.416 95.1996 435.764 95.665C435.111 96.1305 434.358 96.4344 433.565 96.552C431.431 96.9982 429.611 95.6183 429.106 93.2062C428.343 89.5543 430.429 86.8999 434.823 85.9811C435.363 85.8751 435.909 85.802 436.458 85.7624C436.484 85.4248 436.466 85.0854 436.406 84.7523C436.199 83.7655 435.438 83.5373 433.591 83.9235C432.156 84.2117 430.778 84.7378 429.516 85.4799L429.358 81.9918C430.776 81.1718 432.31 80.5721 433.907 80.2132C437.281 79.5078 439.411 80.6467 440.013 83.5227C440.186 84.526 440.286 85.5406 440.313 86.5584C440.443 88.82 440.679 93.6121 440.814 94.7634Z" fill="#003473"/>
<path d="M396.159 103.863C395.311 104.366 394.389 104.731 393.427 104.944C391.412 105.366 390.063 104.433 389.617 102.299C389.444 100.935 389.345 99.5631 389.321 98.1886C389.256 96.7409 388.871 87.614 388.871 87.614L392.792 86.794L392.811 89.1579L395.173 88.6642L395.394 92.3765L393.016 92.8738C393.157 95.8197 393.25 99.5062 393.34 99.9802C393.501 100.748 393.984 100.999 394.929 100.801C395.291 100.739 395.64 100.618 395.963 100.444L396.159 103.863Z" fill="#003473"/>
<path d="M408.159 101.222C406.942 101.902 405.629 102.393 404.264 102.679C399.879 103.596 397.103 101.773 396.186 97.3875C395.114 92.2597 397.235 87.8813 401.191 87.0543C404.421 86.3788 406.928 88.0552 407.621 91.3698C407.862 92.6165 407.96 93.8869 407.911 95.1559L400.085 96.7924C400.278 99.023 401.858 99.6345 404.102 99.1654C405.514 98.8721 406.84 98.2606 407.98 97.3775L408.159 101.222ZM404.1 92.8014C404.035 92.4893 403.955 90.0414 401.711 90.5105C400.463 90.7715 399.768 91.9115 399.74 93.7131L404.1 92.8014Z" fill="#003473"/>
<path d="M378.897 97.0148C379.292 98.904 380.485 100.019 382.782 100.604C384.532 101.021 384.831 101.188 384.981 101.905C385.177 102.841 384.557 103.411 382.996 103.737C381.793 103.984 380.557 104.031 379.337 103.877L379.522 107.456C380.931 107.479 382.337 107.341 383.715 107.046C387.881 106.175 389.473 104.187 388.757 100.763C388.325 98.6967 387.229 97.667 385.092 97.1281C383.246 96.7217 383.051 96.5865 382.904 95.8865C382.758 95.1865 383.306 94.5261 384.58 94.2598C385.531 94.0749 386.494 93.953 387.461 93.8949L387.264 90.2567C386.077 90.3201 384.895 90.4642 383.727 90.6881C379.345 91.622 378.3 94.2436 378.897 97.0148Z" fill="#003473"/>
<path d="M424.291 82.6372C425.538 82.4146 426.82 82.5033 428.024 82.8952L427.829 78.7635C427.2 78.6575 424.889 77.75 423.168 78.1097C421.897 78.3873 420.713 78.9705 419.718 79.809C418.723 80.6474 417.947 81.7158 417.458 82.9216C415.005 82.6422 414.382 84.3747 413.554 86.1411L412.574 86.5924C412.563 86.0781 412.501 85.5663 412.387 85.0647L408.76 85.823C409.241 90.5639 409.346 95.445 409.624 100.228L409.659 101.277L413.606 100.452C413.368 96.03 413.159 93.2216 412.991 91.3203L414.299 90.1666C414.342 89.2773 414.987 88.8695 416.386 88.6122C416.409 89.664 416.531 90.7113 416.749 91.7404C417.775 96.6489 421.062 99.1482 425.304 98.2612C426.486 98.0022 427.624 97.5745 428.683 96.9913L428.493 92.6298C427.575 93.4157 426.488 93.9802 425.317 94.2798C423.023 94.7594 421.287 93.3619 420.7 90.5534C419.875 86.5269 421.347 83.2526 424.291 82.6372Z" fill="#003473"/>
<path d="M456.952 72.1639L457.221 77.662C455.845 76.4709 454.474 75.6835 452.94 76.0045C450.949 76.4207 449.452 78.3095 448.735 80.7745C447.543 80.7681 446.353 80.6967 445.169 80.5606C445.113 79.7928 445.015 79.0287 444.875 78.2717L441.257 79.0283C441.738 83.7692 441.843 88.6503 442.13 93.4317L442.156 94.4826L446.077 93.6626C445.886 90.0936 445.698 87.1312 445.517 84.7923C446.61 83.2873 447.063 82.0835 448.428 81.8773C448.123 83.5513 448.144 85.2685 448.491 86.9344C449.274 90.6791 451.69 92.7619 454.558 92.1623C455.252 92.0246 455.908 91.7334 456.475 91.3101C457.043 90.8867 457.509 90.3419 457.84 89.7154L457.947 91.1542L461.683 90.373L460.848 71.3491L456.952 72.1639ZM455.155 88.1555C453.805 88.4376 452.922 87.5835 452.513 85.6269C451.898 82.6834 452.72 80.302 454.517 79.9264C455.866 79.6442 456.815 80.5197 457.213 82.4258C457.838 85.4114 456.983 87.7644 455.153 88.1471L455.155 88.1555Z" fill="#003473"/>
<path d="M367.006 109.052L363.059 109.877L362.357 95.2354L360.276 110.459L357.585 111.021L354.312 97.0057L354.878 111.588L351.193 112.358L350.418 93.2865L356.094 92.0997L358.638 103.469L360.075 91.2673L366.206 89.9852L367.006 109.052Z" fill="white"/>
<path d="M375.297 100.356C375.009 100.373 374.723 100.409 374.44 100.464C372.205 100.932 371.226 101.937 371.544 103.455C371.564 103.656 371.627 103.85 371.729 104.024C371.831 104.198 371.968 104.348 372.133 104.465C372.297 104.581 372.484 104.661 372.682 104.699C372.88 104.737 373.084 104.733 373.28 104.686C374.874 104.352 375.759 102.565 375.297 100.356ZM379.559 106.427L376.287 107.111L376.039 105.544C375.671 106.256 375.139 106.871 374.486 107.337C373.833 107.802 373.079 108.106 372.285 108.221C370.143 108.669 368.331 107.287 367.829 104.884C367.065 101.232 369.151 98.5774 373.545 97.6587C374.084 97.5494 374.63 97.4736 375.179 97.4315C375.205 97.0968 375.188 96.7601 375.128 96.4298C374.919 95.4346 374.15 95.2082 372.312 95.5926C370.893 95.8903 369.532 96.4128 368.278 97.1402C368.269 96.8868 368.121 93.6521 368.121 93.6521C369.535 92.8255 371.069 92.2227 372.668 91.865C376.041 91.1596 378.174 92.307 378.765 95.1763C378.948 96.1812 379.049 97.1993 379.067 98.2205C379.21 100.462 379.45 105.271 379.585 106.422L379.559 106.427Z" fill="white"/>
<path d="M428.75 77.4274L428.936 81.5608C427.732 81.1689 426.449 81.0802 425.203 81.3028C422.259 81.9182 420.789 85.201 421.637 89.2577C422.223 92.0577 423.967 93.4535 426.261 92.9738C427.434 92.679 428.521 92.114 429.437 91.3238L429.627 95.6854C428.571 96.2679 427.435 96.6949 426.257 96.9535C422.04 97.8352 418.72 95.343 417.695 90.4429C416.316 83.8476 419.013 78.4773 424.242 77.3839C425.737 77.1542 427.259 77.1688 428.75 77.4274Z" fill="white"/>
<path d="M437.461 87.3573C437.173 87.3743 436.886 87.4106 436.603 87.4662C434.368 87.9335 433.39 88.9391 433.708 90.4572C433.727 90.6583 433.789 90.8528 433.89 91.0276C433.991 91.2025 434.129 91.3534 434.294 91.4702C434.458 91.587 434.646 91.6668 434.845 91.7043C435.043 91.7418 435.248 91.7361 435.444 91.6875C437.021 91.3577 437.855 89.5811 437.461 87.3573ZM441.732 93.4272L438.459 94.1114L438.211 92.5437C437.843 93.2564 437.311 93.8711 436.658 94.3367C436.005 94.8024 435.251 95.1056 434.457 95.2211C432.315 95.6691 430.503 94.2874 430.001 91.8837C429.237 88.2318 431.323 85.5774 435.717 84.6587C436.253 84.5498 436.796 84.4745 437.342 84.4332C437.375 84.0984 437.361 83.7607 437.3 83.4298C437.092 82.4346 436.322 82.2082 434.484 82.5926C433.065 82.8903 431.704 83.4128 430.45 84.1402C430.399 83.8957 430.284 80.6538 430.284 80.6538C431.702 79.8271 433.239 79.2238 434.84 78.865C438.213 78.1596 440.346 79.307 440.937 82.1763C441.12 83.1812 441.221 84.1993 441.239 85.2205C441.357 87.467 441.596 92.2759 441.732 93.4272Z" fill="white"/>
<path d="M397.049 102.533C396.202 103.036 395.279 103.401 394.317 103.614C392.301 104.036 390.963 103.11 390.517 100.976C390.335 99.613 390.236 98.2402 390.221 96.8652C390.156 95.4176 389.769 86.2822 389.769 86.2822L393.691 85.4622L393.701 87.8279L395.717 87.4064L395.93 91.1206L393.914 91.5421C394.055 94.4879 394.148 98.1744 394.238 98.6485C394.401 99.4244 394.884 99.6753 395.82 99.4796C396.183 99.4156 396.532 99.2921 396.853 99.114L397.049 102.533Z" fill="white"/>
<path d="M409.072 99.895C407.854 100.572 406.541 101.06 405.176 101.343C400.782 102.262 398.017 100.446 397.098 96.0521C396.028 90.9327 398.147 86.5459 402.095 85.7206C405.333 85.0434 407.842 86.7282 408.535 90.0427C408.776 91.2901 408.871 92.5613 408.817 93.8306L401.015 95.4619C401.199 97.6858 402.781 98.3057 405.033 97.8348C406.444 97.5388 407.77 96.9244 408.909 96.0385L409.072 99.895ZM405.012 91.466C404.947 91.1539 404.867 88.706 402.623 89.1751C401.375 89.4361 400.68 90.576 400.652 92.3777L405.012 91.466Z" fill="white"/>
<path d="M379.812 95.6794C380.209 97.5771 381.402 98.6921 383.697 99.2686C385.456 99.6841 385.748 99.8607 385.896 100.569C386.092 101.505 385.48 102.073 383.92 102.4C382.714 102.646 381.476 102.697 380.254 102.55C380.254 102.55 380.431 105.964 380.438 106.121C381.849 106.147 383.259 106.009 384.638 105.709C388.796 104.839 390.388 102.852 389.672 99.4276C389.241 97.3697 388.146 96.34 386.015 95.7909C384.17 95.3845 383.974 95.2493 383.828 94.5493C383.681 93.8493 384.228 93.1804 385.502 92.9141C386.453 92.7292 387.416 92.6074 388.383 92.5493L388.222 88.9564C387.035 89.0244 385.853 89.1685 384.685 89.3878C380.244 90.2901 379.226 92.9149 379.812 95.6794Z" fill="white"/>
<path d="M462.603 89.0627L458.875 89.8422L458.769 88.4118C458.438 89.0392 457.97 89.5847 457.401 90.0083C456.832 90.432 456.175 90.7231 455.479 90.8604C452.619 91.4582 450.205 89.3839 449.422 85.6392C448.38 80.6548 450.435 75.8326 453.918 75.1043C454.666 74.9439 455.443 74.9757 456.176 75.1965C456.908 75.4173 457.573 75.8201 458.108 76.3672L457.837 70.8606L461.725 70.0477L462.603 89.0627ZM456.06 86.8216C457.899 86.4372 458.754 84.0842 458.131 81.107C457.732 79.201 456.782 78.317 455.424 78.601C453.636 78.9748 452.8 81.3327 453.421 84.3015C453.828 86.2497 454.719 87.102 456.094 86.8146L456.06 86.8216Z" fill="white"/>
<path d="M442.139 77.6998C442.612 82.4425 442.725 87.3218 443.005 92.1135L443.038 93.1541L446.985 92.3288C446.477 82.8667 446.438 80.9997 448.706 80.7721C448.652 79.1964 448.849 77.6221 449.289 76.108C447.531 76.1234 446.84 77.2363 446.006 79.268C445.99 78.4872 445.909 77.7091 445.766 76.9415L442.139 77.6998Z" fill="white"/>
<path d="M409.667 84.4898C410.139 89.2325 410.244 94.1136 410.533 98.9035L410.565 99.9442L414.512 99.1189C414.004 89.6567 413.966 87.7898 416.225 87.5639C416.177 85.9873 416.377 84.413 416.816 82.8981C415.059 82.9134 414.367 84.0263 413.533 86.058C413.517 85.2773 413.437 84.4992 413.293 83.7315L409.667 84.4898Z" fill="white"/>
<path fill-rule="evenodd" clip-rule="evenodd" d="M64.0804 434.456C64.3184 434.706 64.5617 434.951 64.8102 435.191L64.0804 434.456Z" fill="url(#paint3_linear_299_26683)"/>
<path fill-rule="evenodd" clip-rule="evenodd" d="M64.0804 434.456C59.9608 430.126 57.4323 424.269 57.4323 417.82V152.303C57.4323 136.613 65.8806 128.165 81.5702 128.165H516.053C520.866 128.165 525.349 129.574 529.114 132.001L530.681 133.014L535.365 137.82C538.395 141.855 540.191 146.869 540.191 152.303V417.82C540.191 431.151 529.384 441.958 516.053 441.958H81.5702C75.06 441.958 69.1518 439.381 64.8102 435.191L64.0804 434.456Z" fill="url(#paint4_linear_299_26683)"/>
<path d="M74.3289 120.924H508.812C514.933 120.924 520.523 123.203 524.778 126.958L530.681 133.014L529.114 132.001C525.349 129.574 520.866 128.165 516.053 128.165H81.5702C65.8806 128.165 57.4323 136.613 57.4323 152.303V417.82C57.4323 424.269 59.9608 430.126 64.0804 434.456L56.2254 426.545C52.4698 422.29 50.1909 416.701 50.1909 410.579V145.062C50.1909 131.731 60.9978 120.924 74.3289 120.924Z" fill="url(#paint5_linear_299_26683)"/>
<path d="M56.9323 417.82C56.9323 422.053 57.9999 426.037 59.8801 429.516L56.5907 426.203C52.9183 422.038 50.6909 416.569 50.6909 410.579V145.062C50.6909 132.007 61.274 121.424 74.3289 121.424H508.812C514.8 121.424 520.267 123.65 524.433 127.321L527.526 130.494C524.099 128.688 520.195 127.665 516.053 127.665H81.5702C73.6389 127.665 67.4594 129.802 63.2641 133.997C59.0688 138.192 56.9323 144.372 56.9323 152.303V417.82ZM528.843 132.421L530.362 133.404L534.985 138.146C537.94 142.093 539.691 146.993 539.691 152.303V417.82C539.691 430.875 529.108 441.458 516.053 441.458H81.5702C75.1968 441.458 69.4133 438.937 65.1615 434.835C65.1602 434.834 65.1588 434.833 65.1574 434.831L64.4426 434.111C64.4414 434.11 64.4403 434.109 64.4392 434.108C60.4065 429.868 57.9323 424.133 57.9323 417.82V152.303C57.9323 144.545 60.0199 138.655 63.9712 134.704C67.9225 130.753 73.8119 128.665 81.5702 128.665H516.053C520.767 128.665 525.157 130.044 528.843 132.421Z" stroke="url(#paint6_linear_299_26683)"/>
<path d="M416.977 203.831H405.492L412.661 159.754H424.146L416.977 203.831Z" fill="white"/>
<path d="M395.82 159.754L384.889 190.07L383.604 183.538L379.736 163.716C379.736 163.716 379.276 159.754 374.3 159.754H356.212L356 160.497C360.235 161.553 364.283 163.251 368.004 165.532L377.968 203.831H389.924L408.189 159.754H395.82Z" fill="white"/>
<path d="M486.117 203.832H496.658L487.461 159.755H478.24C477.119 159.671 476.001 159.947 475.049 160.543C474.097 161.139 473.36 162.024 472.946 163.068L455.824 203.832H467.757L470.116 197.287H484.713L486.117 203.832ZM473.488 188.243L479.513 171.735L482.909 188.243H473.488Z" fill="white"/>
<path d="M456.717 170.355L458.356 160.922C455.041 159.738 451.558 159.089 448.039 159C442.343 159 428.819 161.488 428.819 173.586C428.819 184.977 444.69 185.118 444.69 191.096C444.69 197.075 430.446 196.014 425.753 192.276L424.043 202.098C428.148 203.814 432.565 204.661 437.014 204.586C444.843 204.586 456.658 200.53 456.658 189.505C456.646 178.043 440.634 176.97 440.634 171.994C440.634 167.018 451.812 167.643 456.717 170.355Z" fill="white"/>
<path d="M383.604 183.538L379.736 163.716C379.736 163.716 379.276 159.754 374.3 159.754H356.212L356 160.497C362.226 162.085 368.035 165.001 373.027 169.046C377.772 172.857 381.421 177.857 383.604 183.538Z" fill="#FAA634"/>
<defs>
<linearGradient id="paint0_linear_299_26683" x1="0.000188234" y1="410.741" x2="652.672" y2="-275.877" gradientUnits="userSpaceOnUse">
<stop stop-color="#A5C8FF"/>
<stop offset="1" stop-color="white"/>
</linearGradient>
<linearGradient id="paint1_linear_299_26683" x1="0.000188234" y1="410.741" x2="652.672" y2="-275.877" gradientUnits="userSpaceOnUse">
<stop stop-color="#1057A1"/>
<stop offset="1" stop-color="white"/>
</linearGradient>
<linearGradient id="paint2_linear_299_26683" x1="8.20823e-05" y1="410.741" x2="409.456" y2="-99.4097" gradientUnits="userSpaceOnUse">
<stop stop-color="#004786"/>
<stop offset="1" stop-color="white" stop-opacity="0"/>
</linearGradient>
<linearGradient id="paint3_linear_299_26683" x1="50.191" y1="441.958" x2="1016.78" y2="-799.534" gradientUnits="userSpaceOnUse">
<stop stop-color="#004786"/>
<stop offset="1" stop-color="white"/>
</linearGradient>
<linearGradient id="paint4_linear_299_26683" x1="50.191" y1="441.958" x2="1016.78" y2="-799.534" gradientUnits="userSpaceOnUse">
<stop stop-color="#004786"/>
<stop offset="1" stop-color="white"/>
</linearGradient>
<linearGradient id="paint5_linear_299_26683" x1="50.191" y1="441.958" x2="1016.78" y2="-799.534" gradientUnits="userSpaceOnUse">
<stop stop-color="#001C3A"/>
<stop offset="1" stop-color="white"/>
</linearGradient>
<linearGradient id="paint6_linear_299_26683" x1="50.1909" y1="441.958" x2="344.517" y2="-7.2763" gradientUnits="userSpaceOnUse">
<stop stop-color="#004786"/>
<stop offset="1" stop-color="white" stop-opacity="0"/>
</linearGradient>
</defs>
</svg>
